<svg xmlns="http://www.w3.org/2000/svg" viewBox="0 0 1400 360" role="img" aria-label="AgenticCodebase GitHub hero pane">
  <defs>
    <pattern id="grid" width="20" height="20" patternUnits="userSpaceOnUse">
      <circle cx="2" cy="2" r="1" fill="#b8b6ae"/>
    </pattern>
  </defs>
  <rect width="1400" height="360" fill="#f2f1ea"/>
  <rect width="1400" height="360" fill="url(#grid)"/>
  <rect x="20" y="20" width="1360" height="320" fill="none" stroke="#111111" stroke-width="2"/>

  <line x1="20" y1="62" x2="1380" y2="62" stroke="#111111" stroke-width="2"/>
  <text x="40" y="48" font-family="'JetBrains Mono', monospace" font-size="14" fill="#5f5c53" letter-spacing="2"> // AGENTRA_LABS: MODULE_HERO</text>
  <rect x="1318" y="36" width="8" height="8" fill="#ea580c"/>
  <text x="1336" y="48" font-family="'JetBrains Mono', monospace" font-size="12" fill="#5f5c53" letter-spacing="2">001</text>

  <rect x="46" y="92" width="232" height="232" fill="none" stroke="#111111" stroke-width="2"/>
  <rect x="46" y="92" width="232" height="38" fill="#111111"/>
  <text x="62" y="116" font-family="'JetBrains Mono', monospace" font-size="11" fill="#f2f1ea" letter-spacing="2">CODEBASE.SEMANTIC_GRAPH</text>

  <path d="M96 176L76 208L96 240" fill="none" stroke="#111111" stroke-width="4" stroke-linecap="square"/>
  <path d="M230 176L250 208L230 240" fill="none" stroke="#111111" stroke-width="4" stroke-linecap="square"/>
  <rect x="124" y="168" width="78" height="80" fill="none" stroke="#111111" stroke-width="3"/>
  <line x1="138" y1="188" x2="186" y2="188" stroke="#ea580c" stroke-width="3"/>
  <line x1="138" y1="206" x2="186" y2="206" stroke="#ea580c" stroke-width="3"/>
  <line x1="138" y1="224" x2="170" y2="224" stroke="#ea580c" stroke-width="3"/>
  <circle cx="214" cy="176" r="5" fill="#ea580c"/>
  <circle cx="228" cy="194" r="5" fill="#ea580c"/>
  <circle cx="214" cy="212" r="5" fill="#ea580c"/>
  <line x1="214" y1="176" x2="228" y2="194" stroke="#111111" stroke-width="2"/>
  <line x1="228" y1="194" x2="214" y2="212" stroke="#111111" stroke-width="2"/>

  <text x="324" y="136" font-family="'JetBrains Mono', monospace" font-size="52" fill="#111111" font-weight="700" letter-spacing="1">AGENTICCODEBASE</text>
  <text x="324" y="172" font-family="'JetBrains Mono', monospace" font-size="18" fill="#ea580c" font-weight="700" letter-spacing="2">SEMANTIC COMPILER + COLLECTIVE + PROPHECY</text>
  <text x="324" y="210" font-family="'JetBrains Mono', monospace" font-size="16" fill="#5f5c53">
    Agents navigate concepts not files: impact edges, hidden coupling, cross-language traces,
  </text>
  <text x="324" y="234" font-family="'JetBrains Mono', monospace" font-size="16" fill="#5f5c53">
    collective dependency patterns, and temporal forecasting before changes ship.
  </text>

  <rect x="324" y="258" width="154" height="34" fill="#111111"/>
  <text x="344" y="280" font-family="'JetBrains Mono', monospace" font-size="12" fill="#f2f1ea" letter-spacing="2">MCP-NATIVE</text>
  <rect x="488" y="258" width="146" height="34" fill="#111111"/>
  <text x="508" y="280" font-family="'JetBrains Mono', monospace" font-size="12" fill="#f2f1ea" letter-spacing="2">PORTABLE</text>
  <rect x="644" y="258" width="108" height="34" fill="#ea580c"/>
  <text x="674" y="280" font-family="'JetBrains Mono', monospace" font-size="12" fill="#f2f1ea" letter-spacing="2">.ACB</text>
</svg>
